<svg xmlns="http://www.w3.org/2000/svg" width="147" height="120" viewBox="0 0 147 120">
    <g fill="none" fill-rule="nonzero">
        <path fill="#04ADAA" d="M15.801 39.053C5.77 42.648 5.607 51.219 6.309 55.209c.014.11.13.293.104.312-.374.22-17.682-29.404 30.19-38.764C39.427 8.15 37.613 0 37.613 0c-65.141 38.906-26.06 63.583-25.273 62.83.005-.021-.09-.083-.205-.26-2.213-3.284-8.224-12.56 3.602-22.641.39-.326 1.089-.854 1.92-1.465h-.012c-.73.197-1.393.4-1.844.589z"/>
        <path fill="#DB1E49" d="M33.089 24.865c.044 0 .073.007.113.007 4.831.294 10.493 1.473 17.106 3.723 7.163-6.45 9.763-14.19 9.763-14.19-9.15.36-16.863 1.071-23.4 2.34-.007 0-.036.013-.067.013l-.13.399c-.85 2.489-1.775 5.184-3.385 7.708z"/>
        <path fill="#BF2B2B" d="M6.412 55.52c.029-.018-.088-.2-.102-.312-.703-3.99-.54-12.559 9.49-16.156.453-.187 1.115-.392 1.844-.587-9.413-.175-11.924 5.393-12.421 8.448-.039.299-.047.38-.103.358-.51-.285-.51-24.057 27.969-22.406 1.61-2.524 2.535-5.22 3.386-7.708l.129-.399C-11.269 26.116 6.039 55.74 6.412 55.521z"/>
        <path fill="#FFD500" d="M50.482 28.638c-.048-.013-.108-.034-.174-.042-.017.008-.023.008-.039.029-4.685 4.203-11.06 6.454-20.562 7.801-2.987.42-4.709.64-7.166 1.015a47.699 47.699 0 0 0-4.877 1.023h-.008c.201 0 .392.003.595.014 1.077.045 2.25.177 3.5.414 3.606.665 8.931 2.212 13.575 3.95 23.116 8.728 38.003-3.851 38.003-3.851-8.662-4.743-16.234-8.09-22.847-10.353z"/>
        <path fill="#F7A709" d="M17.644 38.58h.246zM33.089 24.865c-.058.105-.125.2-.192.304-2.053 3.143-5.792 6.56-10.159 9.654-1.198.848-3.403 2.398-5.074 3.642a47.8 47.8 0 0 1 4.877-1.024c2.457-.376 4.18-.595 7.166-1.015 9.502-1.348 15.877-3.598 20.562-7.802.016-.02.022-.02.039-.029-6.613-2.25-12.275-3.429-17.106-3.723-.04 0-.07-.007-.113-.007z"/>
        <path fill="#FDC400" d="M32.898 25.169c.066-.102.133-.2.191-.304C4.611 23.213 4.611 46.985 5.121 47.27c.055.022.064-.059.102-.357.495-3.056 3.008-8.623 12.422-8.448h.02c1.67-1.243 3.875-2.793 5.074-3.643 4.366-3.093 8.106-6.51 10.159-9.653z"/>
        <path fill="#04ADAA" d="M60.764 72.66l-.294-1.012.154-.09z"/>
        <path fill="#04ADAA" d="M134.98 80.42a6.19 6.19 0 0 1-1.175 1.074c-.43.302-.983.452-1.66.452-.423 0-.819-.072-1.185-.215a2.952 2.952 0 0 1-.953-.591 2.797 2.797 0 0 1-.634-.882 2.566 2.566 0 0 1-.233-1.086c0-.473.095-.917.286-1.334.19-.415.511-.78.962-1.096.452-.316 1.051-.574 1.799-.774.747-.201 1.671-.316 2.772-.344v-.194c0-.53-.138-.917-.413-1.161-.275-.244-.716-.366-1.322-.366a5.06 5.06 0 0 0-1.62.29c-.57.194-1.145.434-1.724.721l-.676-2.43c.521-.287 1.174-.556 1.957-.806.782-.252 1.64-.377 2.57-.377.847 0 1.56.097 2.137.29.579.194 1.044.477 1.397.85s.603.828.751 1.365c.148.538.215 1.158.201 1.86l-.02 2.968c0 .344.048.56.147.645.099.086.318.144.656.172l-.318 2.366c-1.072.143-1.89.083-2.454-.183-.564-.265-.96-.67-1.185-1.215h-.063zm-.021-3.248c-1.016.115-1.728.283-2.137.505-.41.223-.614.556-.614 1 0 .33.113.592.338.785.226.194.522.29.89.29.324 0 .617-.06.877-.182.261-.122.476-.284.646-.484v-1.914zm-10.6-2.968a2.297 2.297 0 0 0-.65-.312 2.78 2.78 0 0 0-.836-.118c-.684 0-1.216.258-1.6.774-.385.516-.575 1.19-.575 2.022 0 .86.187 1.527.564 2 .377.473.864.71 1.463.71.363 0 .674-.061.931-.183.258-.122.494-.29.702-.506v-4.387zm0-6.795l3.279-.409v14.624h-3.28l.021-1.033c-.31.33-.69.635-1.142.914-.451.28-.988.42-1.608.42a3.879 3.879 0 0 1-1.683-.366 3.851 3.851 0 0 1-1.332-1.043 5.006 5.006 0 0 1-.879-1.635c-.211-.637-.317-1.35-.317-2.14 0-.83.134-1.58.402-2.247a5.25 5.25 0 0 1 1.076-1.71c.447-.472.97-.834 1.558-1.085a4.766 4.766 0 0 1 1.88-.376c.702 0 1.379.114 2.024.344v-4.258zM103.77 81.667l-2.772-10.043h3.3l1.334 6.645 1.672-6.645h3.406l1.693 6.537 1.142-6.537h3.386l-2.793 10.043h-3.301l-1.883-6.581-1.883 6.58h-3.301zm-6.453-5.043c0-.843-.173-1.517-.519-2.026-.345-.505-.856-.76-1.534-.76-.677 0-1.184.255-1.523.76-.339.51-.508 1.19-.508 2.047 0 .857.173 1.53.518 2.025.346.491.857.738 1.535.738.676 0 1.184-.25 1.523-.748.339-.502.508-1.18.508-2.036zm3.237-.033c0 .832-.141 1.581-.423 2.247a5 5 0 0 1-1.143 1.689c-.48.459-1.044.81-1.693 1.054a5.852 5.852 0 0 1-2.073.365 6.081 6.081 0 0 1-2.063-.344 4.55 4.55 0 0 1-1.66-1.021 4.806 4.806 0 0 1-1.101-1.667c-.268-.66-.402-1.412-.402-2.258 0-.846.137-1.602.413-2.269a4.8 4.8 0 0 1 1.142-1.688 4.906 4.906 0 0 1 1.703-1.043 6.075 6.075 0 0 1 2.095-.355c.748 0 1.439.119 2.073.355a4.69 4.69 0 0 1 1.65 1.032 4.71 4.71 0 0 1 1.09 1.656c.262.652.392 1.401.392 2.247zm-19.74 5.7a3.129 3.129 0 0 1-1.186-.657 1.466 1.466 0 0 1-.529-1.15c0-.473.19-.918.572-1.334.38-.415.867-.709 1.46-.881a3.646 3.646 0 0 1-1.439-1.226c-.367-.53-.55-1.154-.55-1.871 0-.545.106-1.054.317-1.527a3.45 3.45 0 0 1 .92-1.226 4.506 4.506 0 0 1 1.471-.817c.578-.2 1.234-.301 1.968-.301.592 0 1.15.075 1.671.226.522.15.966.312 1.333.484l2.772-.237.148 2.688-1.904-.3c.085.1.151.265.2.494.05.23.075.43.075.602 0 .502-.106.975-.317 1.42a3.41 3.41 0 0 1-.89 1.15c-.38.322-.835.577-1.364.763-.529.187-1.11.28-1.745.28-.226 0-.441-.014-.646-.043a18.442 18.442 0 0 1-.666-.108 1.5 1.5 0 0 0-.392.29.605.605 0 0 0-.18.441c0 .23.138.391.413.484.275.093.737.14 1.386.14h1.164c.677 0 1.294.047 1.851.14.557.093 1.037.25 1.439.473.402.222.712.513.93.87.22.36.329.804.329 1.334 0 .631-.17 1.198-.508 1.7a4.5 4.5 0 0 1-1.365 1.29 7.01 7.01 0 0 1-1.967.827c-.741.194-1.513.291-2.317.291-.663 0-1.287-.054-1.873-.162a5.705 5.705 0 0 1-1.523-.483 2.967 2.967 0 0 1-1.027-.807 1.804 1.804 0 0 1-.38-1.15c0-.502.193-.953.582-1.355.388-.402.976-.652 1.766-.753zm1.29.365a1.74 1.74 0 0 0-.56.44.995.995 0 0 0-.223.656c0 .388.222.703.666.947.445.243 1.048.366 1.81.366a6.63 6.63 0 0 0 1.1-.087c.338-.057.634-.147.888-.268.255-.123.452-.266.593-.43a.851.851 0 0 0 .212-.57c0-.402-.208-.667-.625-.796-.416-.129-1.054-.194-1.914-.194a31.094 31.094 0 0 1-1.947-.064zm.148-7.462c0 .53.127.957.38 1.279.255.323.643.484 1.165.484.493 0 .857-.169 1.09-.505.232-.337.348-.785.348-1.345 0-.53-.123-.957-.37-1.279-.247-.323-.624-.484-1.132-.484-.465 0-.829.169-1.09.505-.26.337-.391.785-.391 1.345zm-7.13.494v-.193c0-.603-.124-1.072-.37-1.409-.247-.337-.625-.505-1.132-.505-.565 0-1.01.21-1.333.634a2.86 2.86 0 0 0-.572 1.495l3.407-.022zm-3.428 1.72c.056.675.303 1.194.74 1.56.438.365 1.059.548 1.863.548.536 0 1.082-.09 1.64-.269a8.012 8.012 0 0 0 1.576-.699l.317 2.56c-.494.257-1.076.458-1.745.602a9.93 9.93 0 0 1-2.085.215c-.832 0-1.587-.115-2.264-.344a4.761 4.761 0 0 1-1.735-1.011 4.468 4.468 0 0 1-1.11-1.645c-.262-.653-.392-1.395-.392-2.226 0-.817.13-1.56.391-2.226a4.813 4.813 0 0 1 1.1-1.699 4.968 4.968 0 0 1 1.694-1.086 5.816 5.816 0 0 1 2.147-.387c1.396 0 2.465.387 3.206 1.161.74.775 1.11 1.785 1.11 3.033 0 .272-.017.58-.052.924a4.112 4.112 0 0 1-.16.839l-6.241.108v.042zm-11.13 1.635c.406.272.9.408 1.485.408.699 0 1.234-.254 1.612-.763.377-.509.564-1.179.564-2.01 0-.861-.17-1.53-.512-2.011-.341-.48-.85-.72-1.516-.72-.363 0-.67.064-.92.193-.254.129-.49.294-.713.494v4.409zm0-6.387c.31-.33.685-.638 1.129-.925.444-.287.98-.43 1.615-.43.603 0 1.164.122 1.675.366.515.243.956.591 1.33 1.043.373.451.663.996.874 1.634.212.638.317 1.358.317 2.162 0 .831-.13 1.58-.391 2.246a5.108 5.108 0 0 1-1.065 1.71 4.595 4.595 0 0 1-1.57 1.086 4.84 4.84 0 0 1-1.89.377c-.32 0-.662-.029-1.022-.086a6.644 6.644 0 0 1-1.002-.237v4.473h-3.279v-14.28l3.28-.408v1.269zm-8.505 8.968V75.73c0-.602-.12-1.021-.356-1.258-.24-.237-.56-.355-.967-.355a1.98 1.98 0 0 0-.881.194c-.268.129-.497.28-.695.451V81.624h-3.28V75.73c0-.602-.123-1.021-.366-1.258-.247-.237-.572-.355-.977-.355-.325 0-.617.058-.882.172a2.604 2.604 0 0 0-.694.43v6.904h-3.28v-9.828l3.28-.409-.018 1.398c.44-.459.91-.82 1.41-1.086.505-.265 1.08-.398 1.728-.398.625 0 1.182.15 1.68.452.493.3.86.745 1.1 1.333a5.57 5.57 0 0 1 1.537-1.301 3.746 3.746 0 0 1 1.873-.484c.958 0 1.71.308 2.253.925.543.616.814 1.462.814 2.537v6.86h-3.28zm-16.927-5.936v-.193c0-.603-.123-1.072-.37-1.409-.247-.337-.624-.505-1.132-.505-.564 0-1.009.21-1.333.634a2.86 2.86 0 0 0-.571 1.495l3.406-.022zm-3.428 1.72c.057.675.303 1.194.74 1.56.438.365 1.059.548 1.863.548.536 0 1.082-.09 1.64-.269a8.014 8.014 0 0 0 1.576-.699l.317 2.56c-.493.257-1.075.458-1.745.602a9.93 9.93 0 0 1-2.084.215c-.833 0-1.587-.115-2.265-.344a4.76 4.76 0 0 1-1.734-1.011 4.466 4.466 0 0 1-1.111-1.645c-.261-.653-.392-1.395-.392-2.226 0-.817.13-1.56.392-2.226a4.813 4.813 0 0 1 1.1-1.699 4.968 4.968 0 0 1 1.693-1.086 5.815 5.815 0 0 1 2.147-.387c1.397 0 2.465.387 3.206 1.161.74.775 1.11 1.785 1.11 3.033 0 .272-.017.58-.052.924a4.117 4.117 0 0 1-.159.839l-6.242.108v.042zm-11.32-3.29l4.402-5.935h3.85l-5.226 6.559 5.353 6.882h-4.02l-4.358-5.914h-.022v5.914H17V68.183h3.364v5.935h.022z"/>
        <path fill="#FFF" d="M142.35 96.84v-7.68h.788v6.943H147v.737h-4.65zm-4.586-6.894l-1.5 3.994h2.987l-1.487-3.994zm3.4 6.894h-.813l-.825-2.2h-3.537l-.825 2.2h-.812l2.962-7.68h.937l2.913 7.68zm-8.799-7.68h.787v7.754h-.875l-4.449-6.648v6.574h-.788v-7.68h.899l4.426 6.586V89.16zm-7.724 3.858c0-.491-.075-.942-.225-1.351a3.07 3.07 0 0 0-.631-1.051 2.813 2.813 0 0 0-.969-.676 3.097 3.097 0 0 0-1.225-.24c-.433 0-.835.08-1.206.24-.37.16-.69.383-.956.67a3.078 3.078 0 0 0-.625 1.032c-.15.401-.225.844-.225 1.327 0 .491.077.942.231 1.352.155.41.367.762.638 1.057.27.295.593.522.969.682.375.16.783.24 1.224.24.434 0 .834-.08 1.2-.24.367-.16.683-.385.95-.676.267-.291.475-.637.625-1.039.15-.4.225-.843.225-1.327zm.812-.049c0 .59-.096 1.13-.287 1.622a3.822 3.822 0 0 1-.8 1.272 3.645 3.645 0 0 1-1.219.836c-.47.2-.985.301-1.543.301a3.926 3.926 0 0 1-1.512-.289 3.663 3.663 0 0 1-1.219-.811 3.705 3.705 0 0 1-.812-1.26 4.337 4.337 0 0 1-.294-1.622c0-.59.096-1.13.287-1.622.192-.491.459-.915.8-1.272a3.58 3.58 0 0 1 1.219-.83c.47-.196.985-.294 1.543-.294.542 0 1.048.096 1.519.288.47.193.877.463 1.218.812.342.348.61.766.806 1.253.196.488.294 1.026.294 1.616zm-10.098 3.871v-7.68h.787v7.68h-.787zm-4.075-6.943v6.943h-.787v-6.943h-2.75v-.738h6.287v.738h-2.75zm-6.786.05l-1.5 3.993h2.987l-1.487-3.994zm3.4 6.893h-.813l-.825-2.2h-3.537l-.825 2.2h-.812l2.962-7.68h.937l2.913 7.68zm-8.799-7.68h.787v7.754h-.875l-4.449-6.648v6.574h-.788v-7.68h.899l4.426 6.586V89.16zm-9.738 3.846c.26-.008.508-.05.743-.123a2.06 2.06 0 0 0 .623-.313c.181-.136.323-.301.427-.498.106-.196.158-.422.158-.676 0-.508-.185-.891-.554-1.149-.368-.258-.898-.387-1.587-.387h-1.22v3.195l1.41-.05zm-1.41 3.834h-.788v-7.68h2.1c.966 0 1.68.2 2.143.602.463.401.694.938.694 1.61a2.04 2.04 0 0 1-.532 1.4c-.162.18-.353.334-.574.461-.221.127-.457.227-.707.302l2.163 3.305h-.925l-2.004-3.17-1.57.098v3.072zm-7.125 0v-7.68h4.712v.725H81.61v2.765h3.274v.7H81.61v2.765h3.924v.725h-4.712zm-4.049-6.943v6.943h-.787v-6.943h-2.75v-.738h6.287v.738h-2.75zm-5.624-.738h.787v7.755h-.875l-4.449-6.648v6.574h-.788v-7.68h.899l4.426 6.586V89.16zM63 96.84v-7.68h.787v7.68H63zM104.239 100.897v6.943h-.792v-6.943h-2.76v-.737H107v.737h-2.761zm-7.082 3.109c.261-.008.51-.05.746-.123.237-.074.444-.178.626-.313a1.48 1.48 0 0 0 .429-.498c.107-.196.159-.422.159-.676 0-.508-.186-.891-.557-1.149-.37-.258-.901-.387-1.594-.387h-1.225v3.195l1.416-.05zm-1.416 3.834h-.792v-7.68h2.11c.97 0 1.687.2 2.152.602.465.401.697.938.697 1.61a2.03 2.03 0 0 1-.534 1.4c-.163.18-.355.334-.577.461a3.298 3.298 0 0 1-.71.302l2.172 3.305h-.929l-2.012-3.17-1.577.098v3.072zm-3.201-3.822a3.89 3.89 0 0 0-.226-1.351 3.073 3.073 0 0 0-.634-1.051 2.827 2.827 0 0 0-.973-.676 3.121 3.121 0 0 0-1.23-.24c-.436 0-.84.08-1.211.24-.373.16-.693.383-.96.67a3.074 3.074 0 0 0-.628 1.032 3.75 3.75 0 0 0-.226 1.327c0 .492.077.942.232 1.352.155.41.368.762.64 1.057.272.295.596.522.973.682.377.16.787.24 1.23.24.435 0 .837-.08 1.205-.24a2.79 2.79 0 0 0 .954-.676 3.15 3.15 0 0 0 .628-1.039 3.75 3.75 0 0 0 .226-1.327zm.815-.049c0 .59-.096 1.13-.288 1.622-.193.492-.46.916-.804 1.272a3.663 3.663 0 0 1-1.224.836c-.472.2-.99.301-1.55.301a3.96 3.96 0 0 1-1.518-.289 3.68 3.68 0 0 1-1.224-.811 3.701 3.701 0 0 1-.816-1.26 4.32 4.32 0 0 1-.295-1.622c0-.59.096-1.13.289-1.622.192-.491.46-.915.803-1.272.343-.356.75-.633 1.224-.83.472-.196.99-.294 1.55-.294.544 0 1.052.096 1.525.288a3.607 3.607 0 0 1 2.033 2.065c.197.488.295 1.026.295 1.616zm-9.615-1.376c0-.55-.192-.971-.579-1.266-.387-.295-.95-.442-1.688-.442h-1.147v3.527l1.122-.025c.746-.017 1.316-.17 1.707-.461.39-.29.585-.735.585-1.333zm.829-.037c0 .844-.283 1.478-.85 1.905-.566.426-1.34.647-2.322.663l-1.07.013v2.703h-.792v-7.68h1.971c.519 0 .971.06 1.356.178.385.119.703.282.954.491.251.21.44.461.565.756.125.295.188.619.188.97zm-9.466 1.45c.261-.008.51-.05.746-.123.237-.074.444-.178.626-.313.182-.136.324-.301.429-.498a1.39 1.39 0 0 0 .159-.676c0-.508-.187-.891-.557-1.149-.37-.258-.901-.387-1.594-.387h-1.226v3.195l1.417-.05zm-1.417 3.834h-.79v-7.68h2.108c.97 0 1.688.2 2.153.602.464.401.697.938.697 1.61a2.034 2.034 0 0 1-.534 1.4c-.163.18-.356.334-.577.461a3.3 3.3 0 0 1-.71.302l2.172 3.305h-.929l-2.012-3.17-1.578.098v3.072zm-3.627 0v-7.68h.79v7.68h-.79zm-4.632-6.894l-1.506 3.994h3l-1.494-3.994zm3.414 6.894h-.816l-.828-2.2h-3.553l-.828 2.2H62l2.975-7.68h.941l2.925 7.68zM125 116.903c0 .475-.062.903-.186 1.284-.125.381-.311.707-.56.977-.248.27-.555.477-.919.62-.365.144-.791.216-1.28.216-.464 0-.876-.07-1.237-.209a2.502 2.502 0 0 1-.913-.596 2.535 2.535 0 0 1-.566-.94 3.714 3.714 0 0 1-.192-1.229v-4.866h.783v4.768c0 .737.18 1.313.538 1.726.36.414.903.621 1.63.621.694 0 1.22-.2 1.58-.602.359-.402.54-.988.54-1.757v-4.756H125v4.743zm-10.155-.897c.259-.008.505-.05.74-.123.233-.073.438-.178.619-.313.18-.135.32-.301.424-.498a1.4 1.4 0 0 0 .158-.676c0-.508-.185-.891-.551-1.149-.367-.258-.893-.387-1.579-.387h-1.213v3.195l1.402-.05zm-1.402 3.834h-.783v-7.68h2.088c.96 0 1.67.2 2.13.602.46.401.69.938.69 1.61a2.05 2.05 0 0 1-.528 1.4 2.32 2.32 0 0 1-.571.461 3.25 3.25 0 0 1-.702.302l2.15 3.305h-.92l-1.993-3.17-1.561.098v3.072zm-2.672-2.937c0 .475-.063.903-.187 1.284s-.31.707-.559.977c-.248.27-.555.477-.92.62-.364.144-.79.216-1.28.216-.464 0-.876-.07-1.236-.209a2.503 2.503 0 0 1-.913-.596 2.535 2.535 0 0 1-.566-.94 3.717 3.717 0 0 1-.193-1.229v-4.866h.783v4.768c0 .737.18 1.313.539 1.726.36.414.903.621 1.63.621.694 0 1.22-.2 1.58-.602.358-.402.539-.988.539-1.757v-4.756h.783v4.743zm-11.52 2.937v-7.68h.782v6.943h3.84v.737H99.25zm-4.561-6.894l-1.491 3.994h2.97l-1.48-3.994zm3.38 6.894h-.808l-.82-2.2h-3.517l-.82 2.2h-.808l2.945-7.68h.932l2.896 7.68zm-7.867-.6a4.314 4.314 0 0 1-1.273.57c-.468.127-.926.19-1.374.19a4.007 4.007 0 0 1-1.534-.283 3.427 3.427 0 0 1-1.187-.799 3.497 3.497 0 0 1-.764-1.253 4.799 4.799 0 0 1-.268-1.646c0-.615.094-1.168.28-1.66.186-.491.447-.913.783-1.265.335-.353.73-.623 1.187-.811a3.896 3.896 0 0 1 1.503-.283c.48 0 .938.061 1.374.186.434.125.797.273 1.087.443l-.26.71a4.01 4.01 0 0 0-1.02-.46 4.07 4.07 0 0 0-1.193-.179c-.423 0-.812.074-1.168.221-.357.15-.665.363-.926.644a3 3 0 0 0-.615 1.028 4.07 4.07 0 0 0-.224 1.4c0 .51.07.97.211 1.375.141.407.34.756.6 1.042.262.29.57.508.931.662.358.152.762.227 1.207.227a3.742 3.742 0 0 0 1.86-.469v-2.1h-2.249v-.7h3.032v3.21zm-8.773-7.08h.782v7.754h-.87l-4.423-6.648v6.574h-.784v-7.68h.893l4.402 6.586v-6.586zm-11.595 7.68v-7.68h4.685v.725h-3.902v2.765h3.256v.7h-3.256v2.765h3.902v.725h-4.685zm-2.324-2.132c0-.453-.182-.792-.546-1.018-.365-.227-.895-.34-1.591-.34h-1.59v2.79h1.789c.687 0 1.182-.127 1.485-.383.302-.254.453-.604.453-1.049zm-.236-3.484c0-.422-.147-.753-.443-.997-.294-.244-.754-.367-1.377-.367h-1.672v2.79h1.547c.59 0 1.063-.123 1.415-.367.354-.244.53-.596.53-1.059zm-.712 1.692c.57.115 1 .327 1.292.643.292.315.44.696.44 1.147 0 .311-.055.596-.162.858a1.707 1.707 0 0 1-.5.676 2.493 2.493 0 0 1-.867.44c-.35.107-.769.16-1.256.16H63v-7.68h2.417c.464 0 .862.049 1.197.147.334.098.61.238.825.42.215.18.37.391.47.633.1.241.15.512.15.807 0 .377-.119.731-.355 1.059-.238.327-.617.559-1.141.69z"/>
    </g>
</svg>
